<svg width="40" height="40" viewBox="0 0 40 40" fill="none" xmlns="http://www.w3.org/2000/svg">
<g clip-path="url(#clip0_938_18246)">
<path d="M39.7968 34.5766L37.8909 31.7177L39.7968 28.8588C40.3302 28.07 39.7475 27.0244 38.8181 27.0306H32.8891V23.5153C32.8891 22.8682 32.3645 22.3435 31.7173 22.3435H27.455L26.8308 18.7043L31.9619 13.7028C32.2812 13.3915 32.3962 12.9259 32.2584 12.5016C32.1205 12.0774 31.7538 11.7682 31.3125 11.7041L24.2216 10.6737L21.0505 4.24836C20.8531 3.8484 20.4457 3.59521 19.9997 3.59521C19.5538 3.59521 19.1464 3.8484 18.949 4.24836L15.7778 10.6737L8.687 11.7041C8.24563 11.7682 7.87886 12.0774 7.74106 12.5016C7.60326 12.9258 7.71825 13.3914 8.0376 13.7028L13.1686 18.7043L12.5445 22.3435H8.28211C7.63498 22.3435 7.11034 22.8682 7.11034 23.5153V27.0306H1.18126C0.256112 27.0216 -0.330632 28.0706 0.202445 28.8588L2.10837 31.7177L0.202523 34.5766C-0.0156603 34.8991 0.000353871 35.2424 0.00152564 35.2346C0.00300988 35.89 0.538509 36.4048 1.17212 36.4048C2.35249 36.4048 12.0778 36.4047 12.969 36.4047C13.6162 36.4047 14.1408 35.8801 14.1408 35.2329V31.7176H25.8585V35.2329C25.8585 35.8801 26.3831 36.4047 27.0303 36.4047C27.7781 36.4047 39.5781 36.4047 38.8272 36.4048C39.7708 36.4048 40.3166 35.3451 39.7968 34.5766ZM36.6366 29.3742L35.5076 31.0677C35.2452 31.4613 35.2452 31.9741 35.5076 32.3676L36.6366 34.0612H31.7141C32.4514 33.0812 32.8891 31.8638 32.8891 30.5458V29.3741H36.6366V29.3742ZM15.4628 19.1908L18.8279 18.0975V21.6358L14.6684 23.8225L15.4628 19.1908ZM21.1714 18.0975L24.5365 19.1908L25.3309 23.8225L21.1714 21.6357V18.0975ZM25.2607 16.962L22.1415 15.9485L24.3244 13.0568L28.6257 13.6818L25.2607 16.962ZM19.9997 7.41464L22.2323 11.9385L20.1496 14.6975L17.9199 11.6286L19.9997 7.41464ZM11.3736 13.6819L16.024 13.0062L18.1037 15.8686L14.7386 16.962L11.3736 13.6819ZM9.45372 24.6871H12.1424L11.9572 25.7664C11.8819 26.206 12.0626 26.6503 12.4234 26.9125C12.7843 27.1747 13.2627 27.2093 13.6574 27.0017L19.9997 23.6674L26.3419 27.0017C26.7383 27.2101 27.2166 27.1736 27.5759 26.9125C27.9367 26.6503 28.1175 26.2061 28.0421 25.7664L27.8569 24.6871H30.5456V29.3742H9.45372V24.6871ZM7.11018 30.5459C7.11018 31.8638 7.54788 33.0813 8.28516 34.0612H3.36271L4.49175 32.3677C4.75415 31.9741 4.75415 31.4613 4.49175 31.0677L3.36271 29.3742H7.11018V30.5459ZM11.7973 33.8597C10.8002 33.506 10.0089 32.7148 9.65527 31.7177H11.7973V33.8597ZM30.344 31.7177C29.9904 32.7148 29.1991 33.506 28.202 33.8597V31.7177H30.344Z" fill="#47B151"/>
<path d="M12.4957 8.14972C12.8771 8.67467 13.6102 8.78841 14.1324 8.40892C14.656 8.02856 14.772 7.29574 14.3916 6.77219L12.4343 4.07821C12.0538 3.55459 11.3211 3.43858 10.7976 3.81902C10.274 4.19937 10.1579 4.9322 10.5384 5.45575L12.4957 8.14972Z" fill="#47B151"/>
<path d="M26.323 8.46466C26.8415 8.85611 27.5759 8.74995 27.9642 8.23547L30.0496 5.4729C30.4395 4.95638 30.3369 4.22161 29.8204 3.83172C29.3039 3.44183 28.5691 3.5444 28.1792 4.06092L26.0938 6.82348C25.7039 7.34 25.8065 8.07478 26.323 8.46466Z" fill="#47B151"/>
</g>
<defs>
<clipPath id="clip0_938_18246">
<rect width="40" height="40" fill="white"/>
</clipPath>
</defs>
</svg>
